<svg width="1704" height="1080" viewBox="0 0 1704 1080" fill="none" xmlns="http://www.w3.org/2000/svg">
<circle cx="852" cy="1285" r="852" fill="url(#paint0_linear)"/>
<g clip-path="url(#clip0)">
<path d="M1316.03 974.141C1289.05 974.141 1292.07 1039.25 1292.07 1039.25C1292.07 1039.25 1284.21 959.91 1254.33 967.504C1224.44 975.098 1243.32 1039.33 1243.32 1039.33C1243.32 1039.33 1222.82 981.918 1198.49 1006.31C1174.15 1030.72 1226 1082.02 1226 1082.02H1323.66C1357.61 1021.15 1343.01 974.141 1316.03 974.141Z" stroke="white" stroke-width="0.9711" stroke-miterlimit="10"/>
<path d="M1403.92 917.645C1357.55 906.916 1355.8 980.615 1355.8 980.615C1355.8 980.615 1343.03 873.018 1294.67 891.036C1296.94 906.529 1317.02 1036.64 1358.26 1080.11C1380.98 993.808 1399.84 931.082 1403.92 917.645Z" fill="#BD3F64"/>
<path d="M1405.83 918.154C1401.77 931.489 1382.71 994.866 1359.78 1082.04H1378.69C1378.69 1082.04 1451.8 931.835 1405.83 918.154Z" fill="#BD3F64"/>
<path d="M1287.18 894.68C1252.48 915.446 1271.18 985.583 1289.37 1033.89C1300.11 1062.42 1327.05 1081.45 1357.37 1082.02C1315.79 1039.11 1295.4 909.583 1292.78 891.81C1290.95 892.604 1289.09 893.54 1287.18 894.68Z" fill="#BD3F64"/>
<path d="M1405.08 917.91C1404.7 917.808 1404.31 917.726 1403.92 917.645C1399.84 931.082 1380.98 993.808 1358.26 1080.11C1317.02 1036.64 1296.92 906.529 1294.67 891.036C1294.04 891.26 1293.41 891.545 1292.78 891.81C1295.4 909.583 1315.79 1039.11 1357.37 1082.02C1357.84 1082.02 1358.3 1082.04 1358.75 1082.04H1359.76C1382.69 994.866 1401.75 931.489 1405.81 918.154C1405.59 918.073 1405.35 917.991 1405.08 917.91Z" fill="white"/>
</g>
<g clip-path="url(#clip1)">
<path d="M358.074 1005.6C358.074 1005.6 358.074 958.865 340.161 940.887C322.249 922.909 338.807 890.421 321.53 877.631C298.794 860.776 285 886.967 285 915.016C285 943.051 297.177 959.6 312.933 975.414C328.689 991.228 329.767 1005.61 329.767 1005.61H358.074V1005.6Z" fill="url(#paint1_linear)"/>
<path d="M373.291 1005.6C373.291 1005.6 379.027 981.157 368.274 955.272C357.535 929.387 391.203 915.016 391.203 877.631C391.203 840.246 382.966 796.022 345.717 803.929C308.469 811.836 331.025 856.06 341.059 879.06C351.094 902.059 324.944 914.863 324.944 947.726C324.944 980.075 343.216 1005.6 343.216 1005.6H373.291Z" fill="url(#paint2_linear)"/>
<path d="M384.901 1005.6C384.901 1005.6 399.939 980.186 409.434 957.949C418.929 935.713 436.344 925.392 427.637 883.291C418.929 841.203 379.4 842.133 374.618 875.342C369.836 908.551 385.647 931.745 369.836 947.615C354.024 963.484 360.382 1005.6 360.382 1005.6H384.901Z" fill="url(#paint3_linear)"/>
<path d="M400.16 866.089C400.16 866.089 414.658 911.839 391.203 949.612C367.749 987.372 373.18 1012.56 373.18 1012.56" stroke="white" stroke-width="0.9736" stroke-miterlimit="10"/>
<path d="M353.236 822.878C353.236 822.878 377.52 869.474 360.52 908.094C343.52 946.699 344.045 980.838 358.074 1010.98" stroke="white" stroke-width="0.9736" stroke-miterlimit="10"/>
<path d="M309.865 898.411C309.865 898.411 299.734 928.915 319.277 959.42C338.82 989.924 338.82 1016.39 338.82 1016.39" stroke="white" stroke-width="0.9736" stroke-miterlimit="10"/>
<path d="M319.927 1098H388.329L400.16 1005.6H308.109L319.927 1098Z" fill="#D3636F"/>
<path d="M299.495 1027.18H406.956V1005.61H299.495V1027.18Z" fill="#BD3F64"/>
</g>
<defs>
<linearGradient id="paint0_linear" x1="852" y1="433" x2="852" y2="2137" gradientUnits="userSpaceOnUse">
<stop stop-color="#FE9457"/>
<stop offset="1" stop-color="#FF7C5C"/>
</linearGradient>
<linearGradient id="paint1_linear" x1="321.535" y1="1053.93" x2="321.535" y2="878.577" gradientUnits="userSpaceOnUse">
<stop stop-color="#FE6B87"/>
<stop offset="1" stop-color="#FAD5A0"/>
</linearGradient>
<linearGradient id="paint2_linear" x1="358.07" y1="794.819" x2="358.07" y2="1006.63" gradientUnits="userSpaceOnUse">
<stop stop-color="#FAD5A0"/>
<stop offset="1" stop-color="#FE6B87"/>
</linearGradient>
<linearGradient id="paint3_linear" x1="394.559" y1="860.756" x2="394.559" y2="1011.46" gradientUnits="userSpaceOnUse">
<stop stop-color="#FAD5A0"/>
<stop offset="1" stop-color="#FE6B87"/>
</linearGradient>
<clipPath id="clip0">
<rect width="230" height="194" fill="white" transform="translate(1191 889)"/>
</clipPath>
<clipPath id="clip1">
<rect width="145" height="295" fill="white" transform="translate(285 803)"/>
</clipPath>
</defs>
</svg>
