<svg width="142" height="140" viewBox="0 0 142 140" fill="none" xmlns="http://www.w3.org/2000/svg">
<path fill-rule="evenodd" clip-rule="evenodd" d="M28 43C28 19.2429 47.2429 0 71 0C94.7571 0 114.038 19.2429 114 43C114 66.7571 94.7571 86 71 86C47.2429 86 28 66.7571 28 43ZM47.9698 45.0276C47.9698 55.7393 53.2109 65.1121 60.9769 70.2002C57.4573 65.839 55.5445 60.7509 55.3532 54.9359V45.0658C55.5827 38.371 58.0311 32.6708 62.6984 27.927C67.4039 23.1833 73.2571 20.7349 80.3345 20.5819C84.581 20.6584 88.4066 21.6148 91.8114 23.3746C87.1441 18.7073 80.9849 15.8381 74.2135 15.8381C59.7527 15.8381 47.9698 28.96 47.9698 45.0276ZM80.4493 65.2269H92.4618C94.6424 63.3906 94.4128 60.9804 93.4564 59.7562C93.3417 59.6797 93.2269 59.5649 93.1121 59.4502C91.7732 58.1112 91.0845 56.4279 91.0845 54.4386V45.5632C91.0845 42.6557 90.0134 40.1308 87.9093 37.9884C85.8434 35.8461 83.3185 34.7749 80.3728 34.7749C77.3505 34.7749 74.8256 35.8461 72.7215 37.9884C70.6174 40.0925 69.5463 42.6174 69.5463 45.5632V54.4386C69.5463 57.3843 70.6174 59.9093 72.7215 62.0516C74.8256 64.1557 77.3888 65.2269 80.3728 65.2269H80.4493ZM75.4822 49.7482C76.9769 48.1682 78.8559 47.3995 81.0765 47.3995C83.2545 47.3995 85.1335 48.1682 86.6708 49.7482C88.2509 51.371 89.0196 53.2073 89.0196 55.3852C89.0196 57.6059 88.2509 59.4849 86.6708 60.9795C85.1335 62.4742 83.2545 63.2429 81.0765 63.2429C78.8559 63.2429 76.9769 62.5169 75.4822 60.9795C73.9875 59.4849 73.2189 57.6059 73.2189 55.3852C73.2189 53.2073 73.9448 51.3283 75.4822 49.7482Z" fill="white"/>
<path d="M18.9668 128L17.1035 121.883H7.73438L5.87109 128H0L9.07031 102.195H15.7324L24.8379 128H18.9668ZM15.8027 117.312C14.0801 111.77 13.1074 108.635 12.8848 107.908C12.6738 107.182 12.5215 106.607 12.4277 106.186C12.041 107.686 10.9336 111.395 9.10547 117.312H15.8027ZM52.4721 114.904C52.4721 119.135 51.2651 122.375 48.851 124.625C46.4487 126.875 42.9741 128 38.4272 128H31.1498V102.301H39.2182C43.4135 102.301 46.6713 103.408 48.9916 105.623C51.312 107.838 52.4721 110.932 52.4721 114.904ZM46.812 115.045C46.812 109.525 44.3745 106.766 39.4995 106.766H36.5991V123.5H38.937C44.187 123.5 46.812 120.682 46.812 115.045ZM71.7391 128L65.5516 107.838H65.3934C65.6161 111.939 65.7274 114.676 65.7274 116.047V128H60.8583V102.301H68.2762L74.3583 121.953H74.4637L80.9149 102.301H88.3329V128H83.2528V115.836C83.2528 115.262 83.2587 114.6 83.2704 113.85C83.2938 113.1 83.3759 111.107 83.5165 107.873H83.3583L76.7313 128H71.7391ZM97.8792 128V102.301H103.328V128H97.8792ZM135.656 128H128.73L117.551 108.559H117.392C117.615 111.992 117.726 114.441 117.726 115.906V128H112.857V102.301H119.73L130.892 121.549H131.015C130.84 118.209 130.752 115.848 130.752 114.465V102.301H135.656V128Z" fill="white"/>
</svg>
