<?xml version="1.0" standalone="no"?>
<!DOCTYPE svg PUBLIC "-//W3C//DTD SVG 20010904//EN"
 "http://www.w3.org/TR/2001/REC-SVG-20010904/DTD/svg10.dtd">
<svg version="1.0" xmlns="http://www.w3.org/2000/svg"
 width="700.000000pt" height="700.000000pt" viewBox="0 0 700.000000 700.000000"
 preserveAspectRatio="xMidYMid meet">
<metadata>
Created by potrace 1.11, written by Peter Selinger 2001-2013
</metadata>
<g transform="translate(0.000000,700.000000) scale(0.100000,-0.100000)"
fill="#000000" stroke="none">
<path d="M3278 6995 c-1 -1 -41 -5 -88 -9 -87 -7 -105 -9 -225 -27 -116 -18
-123 -19 -192 -35 -184 -42 -248 -59 -369 -99 -317 -106 -649 -271 -886 -440
-31 -22 -66 -47 -78 -55 -44 -29 -186 -144 -265 -214 -357 -315 -681 -755
-865 -1176 -23 -52 -46 -104 -51 -115 -47 -102 -149 -428 -175 -560 -2 -11
-10 -54 -19 -95 -29 -147 -35 -194 -52 -370 -15 -163 -8 -592 12 -711 2 -13 6
-46 9 -74 9 -78 23 -156 51 -285 71 -328 232 -732 407 -1018 35 -57 68 -111
73 -121 25 -42 130 -186 202 -277 147 -184 317 -356 510 -516 88 -73 327 -248
339 -248 3 0 25 -14 49 -30 24 -17 47 -30 51 -30 4 0 15 -6 23 -14 29 -25 304
-161 431 -213 269 -110 577 -194 835 -228 22 -2 56 -7 75 -10 185 -26 693 -27
838 -1 19 4 89 14 142 21 19 3 46 7 60 10 14 3 41 8 60 11 72 12 339 85 450
122 200 68 417 165 584 261 49 28 90 51 92 51 10 0 260 174 347 241 155 121
331 286 457 428 36 41 70 79 76 85 29 30 185 242 240 326 120 184 241 412 315
597 66 163 147 422 175 558 16 79 54 301 59 350 4 33 9 71 11 85 9 46 11 554
4 620 -5 36 -11 90 -14 120 -28 240 -78 465 -156 700 -76 228 -179 457 -286
637 -26 43 -52 87 -58 98 -54 97 -267 382 -366 490 -257 279 -505 483 -825
677 -103 63 -414 218 -436 218 -8 0 -19 4 -24 9 -30 29 -417 149 -600 186 -44
9 -89 19 -100 21 -11 2 -38 6 -60 9 -22 3 -51 7 -65 10 -13 2 -52 7 -86 11
-33 3 -74 8 -90 10 -32 5 -540 14 -546 9z m732 -1300 c127 -18 132 -19 243
-49 186 -49 367 -126 527 -224 79 -49 245 -169 289 -210 14 -13 45 -40 69 -60
23 -19 41 -36 39 -38 -2 -2 -44 14 -93 35 -108 47 -212 83 -320 110 -69 17
-108 25 -231 46 -130 22 -411 23 -528 1 -11 -2 -41 -6 -66 -10 -82 -12 -103
-16 -219 -47 -530 -140 -981 -503 -1258 -1011 -95 -174 -185 -444 -208 -623
-3 -27 -8 -53 -10 -56 -16 -27 -25 -979 -11 -1144 24 -280 99 -542 223 -782
26 -48 52 -95 59 -103 7 -8 20 -29 28 -46 9 -17 43 -68 77 -113 l61 -83 -45
31 c-150 104 -343 284 -462 431 -271 336 -464 783 -520 1200 -4 29 -15 126
-20 170 -8 67 -8 333 0 435 6 76 32 246 51 335 3 14 7 34 9 46 6 33 74 257 87
289 7 17 13 32 13 35 2 10 40 95 88 199 77 162 201 354 327 506 57 69 252 255
331 317 142 110 306 206 495 288 120 52 378 116 540 133 82 8 351 3 435 -8z
m434 -1545 c165 -36 293 -107 417 -230 84 -82 148 -170 192 -263 28 -59 54
-132 47 -132 -1 0 3 -12 9 -26 20 -55 24 -126 26 -569 2 -250 6 -466 9 -479
11 -48 29 -97 54 -146 26 -54 95 -145 118 -158 21 -12 52 -79 61 -129 18 -110
-10 -198 -89 -284 l-41 -44 -531 1 c-292 0 -558 5 -591 10 -300 48 -566 259
-681 543 -57 140 -58 153 -61 661 -2 428 0 478 17 560 26 121 58 200 124 299
113 170 291 309 468 365 131 42 316 50 452 21z"/>
<path d="M4135 3133 c-112 -26 -196 -73 -280 -157 -124 -124 -178 -264 -170
-446 6 -145 52 -259 148 -361 86 -93 191 -151 312 -174 33 -6 165 -7 205 -1
151 21 321 136 403 274 59 97 72 152 71 287 0 145 -3 158 -55 261 -67 134
-191 247 -324 295 -46 16 -88 22 -175 24 -63 1 -124 1 -135 -2z"/>
</g>
</svg>
